<svg width="65" height="51" viewBox="0 0 65 51" fill="none" xmlns="http://www.w3.org/2000/svg">
    <path d="M20.7187 50.7701C27.3416 50.7701 33.3379 48.4907 36.4256 44.9639H36.4704L36.9178 49.996H46.1361V32.2334H17.6758V37.9105H34.8594C34.4567 41.1362 29.9818 43.4586 24.1644 43.4586C16.6913 43.4586 11.6795 40.018 11.6795 34.8999C11.6795 29.6099 16.1544 26.0401 22.6877 26.0401C26.9388 26.0401 30.5635 27.7605 31.4585 30.255L42.3325 28.4486C40.99 22.4704 32.9799 18.4276 22.7324 18.4276C9.12878 18.4276 0 25.18 0 35.244C0 44.4909 8.3233 50.7701 20.7187 50.7701Z" fill="#181617"/>
    <path d="M49.5018 0C49.5018 9.13739 55.5934 15.229 64.7308 15.229C55.5934 15.229 49.5018 21.3206 49.5018 30.458C49.5018 21.3206 43.4102 15.229 34.2728 15.229C43.4102 15.229 49.5018 9.13739 49.5018 0Z" fill="#181617"/>
</svg>
