
<svg width="16" eight="16" viewBox="0 0 16 14" fill="none" xmlns="http://www.w3.org/2000/svg">
    <path
        d="M5.279 13.9039C10.8136 13.9039 13.8408 9.28674 13.8408 5.28277C13.8408 5.15162 13.8408 5.02107 13.832 4.89111C14.4209 4.46219 14.9293 3.9311 15.3333 3.32272C14.7841 3.56776 14.2015 3.72845 13.605 3.79944C14.2331 3.42077 14.7033 2.82519 14.9279 2.12353C14.3372 2.47647 13.691 2.7252 13.0171 2.859C12.5634 2.37323 11.9634 2.05156 11.3099 1.94378C10.6563 1.836 9.98572 1.94811 9.40183 2.26276C8.81794 2.57741 8.35332 3.07706 8.07986 3.68439C7.8064 4.29172 7.73935 4.97287 7.88908 5.62244C6.69272 5.56204 5.52235 5.24899 4.45393 4.70361C3.38552 4.15822 2.44296 3.39269 1.68743 2.45671C1.30263 3.12374 1.18477 3.91337 1.35785 4.66483C1.53094 5.41628 1.98195 6.07306 2.61905 6.50144C2.14018 6.48715 1.67175 6.35708 1.25329 6.1222C1.25329 6.1346 1.25329 6.1476 1.25329 6.16059C1.25348 6.86015 1.49398 7.5381 1.93399 8.07946C2.374 8.62083 2.98644 8.99227 3.66743 9.13079C3.22442 9.25245 2.75961 9.27023 2.30871 9.18277C2.50099 9.78483 2.87535 10.3113 3.37941 10.6886C3.88348 11.0659 4.49205 11.2751 5.12001 11.287C4.05447 12.1302 2.73818 12.5879 1.38295 12.5866C1.14353 12.5861 0.904346 12.5715 0.666626 12.5429C2.04273 13.4321 3.64391 13.9037 5.279 13.9015"
        stroke="white" stroke-width="0.833333" stroke-linecap="round" stroke-linejoin="round" />
</svg>